<?xml version="1.0" encoding="UTF-8"?>
<!-- Generator: Adobe Illustrator 17.1.0, SVG Export Plug-In . SVG Version: 6.00 Build 0)  -->
<!DOCTYPE svg PUBLIC "-//W3C//DTD SVG 1.1//EN" "http://www.w3.org/Graphics/SVG/1.1/DTD/svg11.dtd">
<svg version="1.1" id="Layer_1" xmlns="http://www.w3.org/2000/svg" xmlns:xlink="http://www.w3.org/1999/xlink" x="0px" y="0px" viewBox="0 115 300 66.1" enable-background="new 0 115 300 66.1" xml:space="preserve">
<path fill="#E8490D" d="M0,134.7c3-1.8,7.4-2.6,11.3-2.6c11.2,0,14.5,6.5,14.5,17c0,14.6-6,18.7-14.9,18.7c-2,0-3.9-0.2-5.4-0.7  v14.2H0V134.7z M5.5,162.1c0.9,0.6,2.8,1,5.3,1c6,0,9.4-3.1,9.4-14.2c0-7.1-1.5-12-9.3-12c-2.6,0-4.8,0.5-5.4,1L5.5,162.1L5.5,162.1  z"/>
<path fill="#E8490D" d="M32.7,138.5c1-2.3,4.5-6.5,12.3-6.5c7.7,0,10.6,4.1,10.6,10v22.8c-2.8,2.2-7.2,3.3-11.9,3.3  c-6.8,0-12.1-2.5-12.1-9.4c0-7.3,6-11.4,18.5-12.6v-3c0-4.1-1.1-6.3-5.4-6.3c-4.1,0-6.5,2.1-7.6,4.2L32.7,138.5z M50.1,150.8  c-7.9,0.7-12.9,3-12.9,7.7c0,3.1,2.4,5.1,6.8,5.1c2.7,0,4.6-0.4,6-1.3L50.1,150.8L50.1,150.8z"/>
<path fill="#E8490D" d="M64.2,134.7c2.4-1.5,6.2-2.6,9.8-2.6c3.5,0,6.7,1.2,8.3,4.5l-4.5,2.2c-1-1.3-2.5-1.9-4.2-1.9  c-1.5,0-3,0.3-3.9,0.9v29.8h-5.5L64.2,134.7L64.2,134.7z"/>
<path fill="#E8490D" d="M90.7,137.3h-5.2v-4.5h5.2v-9.1h5.5v9.1h9.1v4.5h-9.1v20.5c0,3.6,0.8,5.5,3.6,5.5c1.8,0,3.3-0.7,4.3-1.8  l2.7,3.9c-1.6,1.8-4.2,2.8-7.7,2.8c-5.7,0-8.5-3-8.5-9.1V137.3L90.7,137.3z"/>
<path fill="#E8490D" d="M113,174.1c0.8,0.7,2.1,1.4,3.8,1.4c2.2,0,3.6-1,5.4-6.8l0.5-1.7c-2.8-1.9-4.5-5.4-6.5-12.2l-6.6-22.1h6  l5.6,19.8c1.3,4.8,2.5,7.4,3.4,8.6l8.9-28.3h5.8l-12.6,38.7c-2.6,8-6.1,9-10.2,9c-2.5,0-5.1-1-6.1-2.1L113,174.1z"/>
<path fill="#FFFFFF" d="M149.7,181.1v-46.3c2.7-1.6,6.9-2.5,11-2.5c10,0,14.2,5,14.2,16.8c0,12.8-4.5,18.5-14.6,18.5  c-2,0-3.8-0.2-5.4-0.7l-0.3-0.1v14.3L149.7,181.1L149.7,181.1z M160.4,136.6c-2.7,0-4.9,0.5-5.6,1l-0.1,0.1v24.5l0.1,0.1  c1,0.6,2.9,1,5.4,1c6.9,0,9.7-4.2,9.7-14.5C169.9,141.5,168.3,136.6,160.4,136.6"/>
<path fill="#FFFFFF" d="M239.9,167.4l-9.7-16.8l-0.2,0.1c-1.4,0.8-2.8,1.4-4.1,1.8l-0.2,0.1v14.7h-5v-49h5v29.7l0.4-0.2  c6.9-2.9,11.2-7.9,12.8-14.9h5.1c-1.4,6.2-4.5,11.1-9.5,15l-0.2,0.1l11.2,19.2L239.9,167.4L239.9,167.4z"/>
<path fill="#FFFFFF" d="M263.1,167.9c-9.4,0-13.6-5.1-13.6-16.6c0-13,4.3-19,13.5-19c7.7,0,11.6,4.3,11.6,12.9c0,2-0.1,4.7-0.5,6.4  h-19.5l0,0.3c0.2,8.7,2.6,11.9,8.8,11.9c4.1,0,6.8-1.7,8.4-3.3l2.7,3.7C272.7,165.6,269.3,167.9,263.1,167.9 M262.6,136.6  c-5.3,0-7.7,3.2-8.2,10.8l0,0.3h14.8l0-0.2c0.1-0.7,0.1-1.8,0.1-2.6C269.4,141.2,268.7,136.6,262.6,136.6"/>
<path fill="#FFFFFF" d="M282.5,167.4v-32.5c2.5-1.5,6.3-2.5,9.5-2.5c2.7,0,6.2,0.7,7.9,4.1l-4,1.9c-1-1.2-2.4-1.8-4.3-1.8  c-1.7,0-3.1,0.3-4,0.9l-0.1,0.1v29.7L282.5,167.4L282.5,167.4z"/>
<linearGradient id="SVGID_3_" gradientUnits="userSpaceOnUse" x1="197.8885" y1="-109.4222" x2="223.4021" y2="-124.3267" gradientTransform="matrix(1.3527 0 0 -1.3527 -85.3803 -14.4936)">
	<stop offset="0.2727" style="stop-color:#EE845A"/>
	<stop offset="0.4364" style="stop-color:#E8490D"/>
	<stop offset="0.703" style="stop-color:#E8490D"/>
	<stop offset="0.9455" style="stop-color:#EE845A"/>
</linearGradient>
<path id="SVGID_2_" fill="url(#SVGID_3_)" d="M178.2,151.1l19.8,4.6v-15.9c0.4,0.6,5.8,8,12,13.7l7.8-2.3  c-17-11.9-19.5-25.8-19.8-28l0-0.3C195.4,139.5,179.3,150.3,178.2,151.1"/>
<linearGradient id="SVGID_4_" gradientUnits="userSpaceOnUse" x1="187.4863" y1="-132.8599" x2="236.2334" y2="-132.8599" gradientTransform="matrix(1.3527 0 0 -1.3527 -85.3803 -14.4936)">
	<stop offset="0.1152" style="stop-color:#A34333"/>
	<stop offset="0.4182" style="stop-color:#E8490D"/>
	<stop offset="0.6303" style="stop-color:#E8490D"/>
	<stop offset="1" style="stop-color:#A34333"/>
</linearGradient>
<path id="SVGID_1_" fill="url(#SVGID_4_)" d="M207.8,151.1c-6.2,5.7-9.3,10.9-9.7,11.4v-11.4h-19.8c1.1,0.8,17.2,11.6,19.8,28.3  l0-0.3c0.3-2.3,2.9-16.1,19.8-28L207.8,151.1L207.8,151.1L207.8,151.1z"/>
</svg>